<svg xmlns="http://www.w3.org/2000/svg" viewBox="0 0 512 512"><title>female-chicken</title><g style="isolation:isolate"><g id="Layer_1" data-name="Layer 1"><path d="M512,256c0,141.37-114.62,256-256,256S0,397.38,0,256,114.62,0,256,0,512,114.62,512,256Z" fill="#f4f0df"/><path id="_14" data-name="14" d="M498.5,324.82c-1-1-2-2-3-3s-2-2-3-3-2-2-3-3-2-2.05-3.06-3.06-2-2-3-3-2-2-3-3-2-2-3-3-2-2.06-3.06-3.06-2-2-3-3-2-2.05-3.06-3-2-2-3-3-2-2-3-3-2-2-3-3-2-2.05-3.05-3-2-2-3-3-2-2-3-3-2-2-3-3-2-2.05-3-3-2-2-3-3-2-2-3-3-2-2.07-3.09-3.07-2-2-3-3-2-2-3-3-2-2.06-3.06-3.06-2-2-3-3-2-2-3-3-2-2-3-3-2-2.07-3.08-3.07-2-2-3-3-2-2-3-3-2-2-3-3-2-2-3-3-2-2-3-3-2-2-3-3-2-2-3-3-2-2-3-3-2-2-3-3-2-2.06-3.08-3.07-2-2-3-3-2-2-3-3-2-2.06-3.07-3.07-2-2-3-3-2-2-3-3-2-2-3-3-2-2-3-3-2-2-3-3a137.91,137.91,0,0,0-19.7-16.75c-.37-.33-.78-.6-1.19-.9a11.57,11.57,0,0,0-3-3,11.69,11.69,0,0,0-3-3,11.69,11.69,0,0,0-3-3,11.85,11.85,0,0,0-3-3,11.4,11.4,0,0,0-3-3,11.37,11.37,0,0,0-3-3,11.78,11.78,0,0,0-3-3,11.81,11.81,0,0,0-3-3,11.43,11.43,0,0,0-3-3,11.53,11.53,0,0,0-3-3,11.72,11.72,0,0,0-3-3,11.3,11.3,0,0,0-3-3,11.53,11.53,0,0,0-3-3,11.7,11.7,0,0,0-3-3,11.55,11.55,0,0,0-3-3,11.52,11.52,0,0,0-3-3,11.79,11.79,0,0,0-3-3c-6.7-10-26.45-6.28-29.46,7.71a2.92,2.92,0,0,0-.29-.24,24.33,24.33,0,0,0-3-3,24.85,24.85,0,0,0-3-3c-5.3-6.21-12.92-10-21.24-3.74-10.68,8-6.12,18.8,3.12,27.2.85,1,1.77,1.86,2.75,2.77-67.49,8.92-119.38,62.6-119.38,127.51,0,34.38,14.58,65.58,38.28,88.69,1,1,2,2,3,3s2,2,3,3,2,2,3,3,2,2.05,3.06,3.06,2,2,3,3,2,2,3,3,2,2.07,3.09,3.09,2,2,2.95,3,2,2.06,3.08,3.07,2,2,3,3,2,2.05,3,3,2,2,3,3,2,2,3,3,2,2,3,3,2,2,3,3,2,2,3,3,2,2,3,3,2,2,3,3,2,2,3,3,2,2,3,3,2,2,3,3,2,2,3,3,2,2,3,3,2,2,3,3,2,2,3,3,2,2,3,3,2,2,3,3,2,2,3,3,2,2,3,3,2,2,3.06,3,2,2,3,3,2,2,3,3,2,2,3,3,2,2,3,3,2,2,3,3,2,2,3,3,2,2.05,3,3,2,2,3,3,2,2,3,3,2,2.06,3.06,3.06,2,2,3,3,2,2,3,3,2,2,3,3,2,2,3,3,2,2,3,3,2,2,3,3,2,2,3,3,2,2,3,3c.68.71,1.39,1.4,2.09,2.1A256.26,256.26,0,0,0,501.66,328l-.12-.12C500.54,326.83,499.53,325.81,498.5,324.82Z" fill="#e3e2e1" style="mix-blend-mode:multiply"/><g id="_14-2" data-name="14"><g id="icon"><path d="M277.79,144.7c5.43-4.81,11.11-11.2,11.66-18.35,1.69-22.14-32.1-18.85-32,1.94-3.89-10.16-14.77-23.1-27.17-13.79-11.85,8.89-4.95,21.24,6.33,29.9C168.86,153.13,116.73,206.91,116.73,272c0,71.17,62.35,128.87,139.27,128.87S395.26,343.14,395.26,272C395.26,207.67,344.35,154.38,277.79,144.7Z" fill="#ffce54"/><path d="M216.77,305.32s32.72,57.48,78.45,0Z" fill="#fc6e51"/><path d="M216.77,305.32s34.88-62.74,78.45,0Z" fill="#fd8b74"/><path d="M197.26,238a15.35,15.35,0,0,0-1.85.21,9.08,9.08,0,0,1,2.92,8.75A10.43,10.43,0,0,1,187,255.23a8.8,8.8,0,0,1-6.31-4,19.93,19.93,0,0,0-.94,7.31c.62,10.75,9.47,19,19.77,18.39s18.16-9.78,17.55-20.52S207.57,237.39,197.26,238Z" fill="#7f4438"/><path d="M314.82,237.69a18.17,18.17,0,0,0-3.91.22,9,9,0,0,1,3.28,9,10.42,10.42,0,0,1-11.37,8.29,8.82,8.82,0,0,1-6.7-4.71,20,20,0,0,0-1.17,5.66c-.67,10.74,7.14,19.89,17.44,20.43s19.19-7.74,19.86-18.5S325.12,238.24,314.82,237.69Z" fill="#7f4438"/><path d="M196.49,224.26c-17.59,1-31,16.67-29.94,35s16.14,32.37,33.72,31.38,31-16.67,29.92-35S214.05,223.24,196.49,224.26Zm3,52.63c-10.3.59-19.16-7.64-19.77-18.39a19.93,19.93,0,0,1,.94-7.31,8.8,8.8,0,0,0,6.31,4,10.43,10.43,0,0,0,11.37-8.29,9.08,9.08,0,0,0-2.92-8.75,15.35,15.35,0,0,1,1.85-.21c10.31-.59,19.16,7.65,19.77,18.39S209.79,276.31,199.48,276.89Z" fill="#f4f0df"/><path d="M315.67,224c-17.56-.91-32.74,13.21-33.88,31.54s12.17,33.94,29.76,34.86,32.73-13.21,33.89-31.53S333.25,224.87,315.67,224Zm16.59,34.17c-.67,10.75-9.56,19-19.86,18.5s-18.11-9.69-17.44-20.43a20,20,0,0,1,1.17-5.66,8.82,8.82,0,0,0,6.7,4.71,10.42,10.42,0,0,0,11.37-8.29,9,9,0,0,0-3.28-9,18.17,18.17,0,0,1,3.91-.22C325.12,238.24,332.92,247.38,332.26,258.12Z" fill="#f4f0df"/></g><path id="shadow" d="M277.79,144.7c5.43-4.81,11.11-11.2,11.66-18.35,1.69-22.14-32.1-18.85-32,1.94-.4-1-.89-2.11-1.43-3.18V400.84h0c76.91,0,139.26-57.7,139.26-128.87C395.26,207.67,344.35,154.38,277.79,144.7Z" fill="#eeece7" style="mix-blend-mode:multiply"/></g></g></g></svg>