<svg xmlns="http://www.w3.org/2000/svg" viewBox="0 0 512 512"><title>rooster</title><g style="isolation:isolate"><g id="Layer_1" data-name="Layer 1"><path d="M512,256c0,141.38-114.61,256-256,256S0,397.38,0,256,114.62,0,256,0,512,114.61,512,256Z" fill="#f4f0df"/><path id="_9" data-name="9" d="M503,298.4a18.33,18.33,0,0,0-3-3,18.54,18.54,0,0,0-3-3,18,18,0,0,0-3-3,18.84,18.84,0,0,0-3-3,19.67,19.67,0,0,0-3-3,18.36,18.36,0,0,0-3-3,18.17,18.17,0,0,0-3-3,18.48,18.48,0,0,0-3-3,18.77,18.77,0,0,0-3-3,19.33,19.33,0,0,0-3-3,18.81,18.81,0,0,0-3-3,19.29,19.29,0,0,0-3-3,19.44,19.44,0,0,0-3-3,18.44,18.44,0,0,0-3-3,18.79,18.79,0,0,0-3-3,18.08,18.08,0,0,0-3-3,18.69,18.69,0,0,0-3-3,18.14,18.14,0,0,0-3-3,19.06,19.06,0,0,0-3-3,18.91,18.91,0,0,0-3-3,18.54,18.54,0,0,0-3-3,18.17,18.17,0,0,0-3-3,18.25,18.25,0,0,0-3-3,19.2,19.2,0,0,0-3-3,18.35,18.35,0,0,0-3-3,18,18,0,0,0-3-3,19.15,19.15,0,0,0-3-3,18.5,18.5,0,0,0-3-3,18.11,18.11,0,0,0-3-3,18.33,18.33,0,0,0-3-3,18.44,18.44,0,0,0-3-3,17.85,17.85,0,0,0-3-3,19.39,19.39,0,0,0-3-3,18.92,18.92,0,0,0-3-3,18.6,18.6,0,0,0-3-3,18.5,18.5,0,0,0-3-3,18.71,18.71,0,0,0-3-3,18.63,18.63,0,0,0-3-3,18.11,18.11,0,0,0-3-3,18,18,0,0,0-3-3,18.5,18.5,0,0,0-3-3,19,19,0,0,0-3-3,18.27,18.27,0,0,0-3-3,19.08,19.08,0,0,0-3-3,18.63,18.63,0,0,0-3-3,18,18,0,0,0-3-3,18.31,18.31,0,0,0-3-3,18.85,18.85,0,0,0-3-3,18.68,18.68,0,0,0-3-3,18.2,18.2,0,0,0-3-3,18.67,18.67,0,0,0-3-3,18.61,18.61,0,0,0-3-3,18.4,18.4,0,0,0-3-3,18.69,18.69,0,0,0-3-3,18.66,18.66,0,0,0-3-3,18.43,18.43,0,0,0-3-3,18.08,18.08,0,0,0-3-3,18.54,18.54,0,0,0-3-3,18.64,18.64,0,0,0-3-3c-6-7.62-17.22-9.73-24.25-2.78-.4-.39-.78-.78-1.22-1.13-.05,0-.11-.07-.16-.12s-.24-.34-.36-.5-.24-.31-.37-.43a18.53,18.53,0,0,0-2.13-2,1.37,1.37,0,0,0-.17-.11c-.13-.16-.23-.34-.36-.5l-.36-.44a17.11,17.11,0,0,0-2.13-2l-.17-.12c-.13-.17-.23-.34-.36-.49s-.24-.3-.37-.44a17.28,17.28,0,0,0-2.13-2c-.15-.13-.32-.24-.48-.35a21.63,21.63,0,0,0-2.08-1.34l-.56-.31A22.12,22.12,0,0,0,284.3,104l-.31-.1a26.62,26.62,0,0,0-2.72-.76l-.61-.13a29.58,29.58,0,0,0-6.39-.54h-.5a30.43,30.43,0,0,0-6.48,1,2.38,2.38,0,0,0-.31.09,28.51,28.51,0,0,0-3,1h0A25,25,0,0,0,261,106l-.13.07a21.78,21.78,0,0,0-2.48,1.72l-.15.11c-5.86,4.8-8.42,12.64-3.09,23.07-8.13-8.07-19.17-5.77-21.73,6.12a27.17,27.17,0,0,0,.56,11.52c-67.07,9.87-118.36,64.18-118.36,129.68,0,35.19,14.82,67.13,38.92,90.7,1,1,2,2,3,3s2,2,3,3,2,2,3,3,2,2,3,3,2,2,3,3,2,2,3,3,2,2,3,3,2,2,3,3,2,2.06,3.06,3.06,2,2,3,3,2,2.07,3.07,3.07,2,2,3,3,2,2,3,3,2,2.06,3.06,3.07,2,2,3,3,2,2,3,3,2,2.06,3.06,3.07,2,2,3,3,2,2,3,3,2,2,3,3,2,2.07,3.09,3.09,2,2,3,3,2,2.07,3.09,3.09,2,2,3,3,2,2,3,3,2,2.06,3.07,3.06,2,2,3,3,2,2,3,3,2,2,3,3,2.05,2.07,3.1,3.1,2,2,3,3,2,2,3,3,2,2,3,3,2,2,3,3,2,2,3,3,2,2,3,3,2,2.06,3.05,3.06,2,2,3,3,2,2,3,3,2,2,3,3,2,2,3,3,2,2,3,3,2,2,3.05,3,2,2,3,3,2,2,3.06,3.06,2,2,3,3c.37.39.76.76,1.14,1.14,107.66-16.31,193.25-99.67,213-206.15a19.21,19.21,0,0,0-1.62-1.52A18.43,18.43,0,0,0,503,298.4Z" fill="#e3e2e1" style="mix-blend-mode:multiply"/><g id="_9-2" data-name="9"><g id="icon"><path d="M256,147c-77.53,0-140.39,58.8-140.39,131.32S178.46,409.59,256,409.59,396.4,350.8,396.4,278.27,333.54,147,256,147Z" fill="#ffce54"/><path d="M246.59,318.67s-39.9,51.1-11.23,58.58c0,0,12.48,4.17,20.77-19.63,0,0-3.07,31.59,17.06,30,0,0,33.22-.38-3.33-73.13Z" fill="#fc6e51"/><path d="M216.47,302.12s33,58.58,79.07,0Z" fill="#775149"/><path d="M216.47,302.12s35.14-64,79.07,0Z" fill="#88675f"/><path d="M298,154.44c-21,4-34.42,36.94-53.66,15.19-6.32-7.13-13.07-22.54-10.9-32.55C236,125.19,247,122.88,255.14,131c-16.61-32.54,43.29-39.91,41.65-8.29,7.22-15.74,27.59-10.51,31.39,4.45,3.16,12.41-.26,26.26-10.17,34.12C318,161.23,304.76,153.13,298,154.44Z" fill="#fc6e51"/><path d="M203.65,230.1a10.35,10.35,0,0,0-5,1.69A9.32,9.32,0,0,1,193,248.51a9.52,9.52,0,0,1-2.09-.25c0,.81-.08,1.62,0,2.46.62,11,7.34,19.47,15,19s13.41-9.67,12.8-20.61S211.32,229.66,203.65,230.1Z" fill="#7f4438"/><path d="M308.37,230.1a10.41,10.41,0,0,0-5.45,1.22,9.35,9.35,0,0,1-5.11,17.19,9.22,9.22,0,0,1-4.25-1.07c-.07.57-.19,1.11-.22,1.69-.62,10.94,5.1,20.18,12.78,20.61s14.42-8.06,15-19S316,230.54,308.37,230.1Z" fill="#7f4438"/><path d="M202.87,216.11c-13.1.77-22.86,16.51-21.82,35.19s12.53,33.2,25.64,32.45,22.86-16.51,21.8-35.18S216,215.34,202.87,216.11Zm3,53.64c-7.68.45-14.4-8.06-15-19,0-.84,0-1.65,0-2.46a9.52,9.52,0,0,0,2.09.25,9.32,9.32,0,0,0,5.71-16.72,10.35,10.35,0,0,1,5-1.69c7.68-.44,14.41,8.07,15,19S213.57,269.31,205.88,269.74Z" fill="#f4f0df"/><path d="M309.15,216.11c-13.11-.76-24.57,13.78-25.63,32.46s8.71,34.41,21.82,35.18S329.9,270,331,251.3,322.24,216.87,309.15,216.11Zm-3,53.64c-7.67-.44-13.39-9.67-12.78-20.61,0-.59.15-1.13.22-1.69a9.22,9.22,0,0,0,4.25,1.07,9.35,9.35,0,0,0,5.11-17.19,10.41,10.41,0,0,1,5.45-1.22c7.67.45,13.38,9.67,12.77,20.62S313.8,270.19,306.11,269.74Z" fill="#f4f0df"/></g><path id="shadow" d="M318.58,160.73c9.44-7.94,12.68-21.46,9.6-33.62-3.8-15-24.17-20.19-31.39-4.45C298,99.79,267,97.33,256,110V409.59c77.54,0,140.4-58.79,140.4-131.32C396.4,226.79,364.7,182.26,318.58,160.73Z" fill="#eeece7" style="mix-blend-mode:multiply"/></g></g></g></svg>