<svg xmlns="http://www.w3.org/2000/svg" viewBox="0 0 512 512"><title>bear</title><g style="isolation:isolate"><g id="Layer_1" data-name="Layer 1"><path d="M512,256c0,141.39-114.61,256-256,256S0,397.38,0,256,114.62,0,256,0,512,114.61,512,256Z" fill="#48cfad"/><path id="_5" data-name="5" d="M506.52,263.95c-1-1-2-2.05-3-3s-2-2-3-3-2-2.05-3-3-2-2.06-3-3-2-2.06-3-3-2-2-3-3-2-2.06-3-3-2-2.06-3-3-2-2.06-3-3-2-2.06-3-3-2-2-3-3-2-2.06-3-3-2-2.07-3-3-2-2.05-3-3-2-2.06-3-3-2-2.06-3-3-2-2.06-3-3-2-2-3-3-2-2.05-3-3-2-2.07-3-3-2-2.05-3-3-2-2-3-3-2-2.07-3-3-2-2-3-3-2-2.06-3-3-2-2.06-3-3-2-2.05-3-3-2-2.07-3-3-2-2-3-3-2-2.05-3-3-2-2.07-3-3-2-2-3-3-2-2.06-3-3-2-2.06-3-3-2-2.06-3-3c-16.4-17.58-41.32-23.84-65.61-4.6-1,.82-2,1.66-2.94,2.5-.32.29-.62.58-.93.88-.59.56-1.18,1.13-1.73,1.69l-1,1c-.48.53-1,1.06-1.41,1.59-.32.37-.63.74-.93,1.11-.44.54-.84,1.08-1.24,1.63-.27.37-.55.73-.8,1.09-.46.67-.9,1.33-1.31,2s-.71,1.16-1,1.74-.6,1-.86,1.56-.49,1-.73,1.48-.39.83-.57,1.23-.46,1.07-.67,1.61l-.41,1.07c-.21.57-.42,1.15-.6,1.73l-.25.81a49.6,49.6,0,0,0-1.88,9.31c0,.05,0,.11,0,.15-.09.8-.15,1.59-.19,2.38,0,0,0,0,0,0,0,.81-.07,1.6-.09,2.39a63.7,63.7,0,0,0-15.95-9.12A97.46,97.46,0,0,0,258,173.91c-.55,0-1.1,0-1.65.06l-.87-.06V174a100.06,100.06,0,0,0-45.82,13l-.17-.18c-1-1-2-2-3-3s-2-2-3-3-1.94-2-3-3-1.95-2-3-3-2-2-3-3-1.94-2-3-3-1.95-2-3-3-1.95-2-3-3-2-2-3-3a57.25,57.25,0,0,0-6.51-6c-35.94-28.48-73.28-1.13-82.33,36.17-4.77,19.62.24,36.39,12.1,47.14a40.39,40.39,0,0,0,3,3,42.26,42.26,0,0,0,3,3,42.18,42.18,0,0,0,3,3,40.67,40.67,0,0,0,3,3c.95,1.05,2,2.05,3,3s2,2.06,3,3a41.85,41.85,0,0,0,3,3,40.58,40.58,0,0,0,3,3,42.79,42.79,0,0,0,3,3,41.82,41.82,0,0,0,3,3,41.14,41.14,0,0,0,3,3,40.23,40.23,0,0,0,3,3c.23.26.43.52.66.78a117.07,117.07,0,0,0-4.73,31.89c0,23.36,8.26,41.33,22.29,54.58q1.46,1.55,3,3c1,1,2,2,3,3s2,2,3,3,2,2.05,3,3,2,2,3,3,2,2,3,3,2,2.06,3,3,2,2,3,3,2,2,3,3,2,2,3,3,2,2,3,3,2,2,3,3,2,2,3,3,2,2,3,3,2,2,3,3,2,2,3,3,2,2.07,3,3.05,2,2,3,3,2,2,3,3,2,2,3,3,2,2,3,3,2,2,3,3,2,2,3,3,2,2.07,3.06,3.05,2,2,3,3,2,2,3,3,2,2,3,3,2,2,3,3,2,2,3,3,2,2,3,3,2,2,3,3,2,2,3,3,2,2.06,3,3,2,2.05,3,3,2,2,3,3,2,2.07,3.06,3.06,2,2,3,3,2,2.06,3,3,2,2,3,3,2,2,3,3,2,2,3,3,2,2,3,3,2,2,3,3,2,2,3,3,2,2,3,3,2,2,3,3,2,2,3,3,2,2,3,3c.49.52,1,1,1.53,1.53,113-22.65,199.15-119.68,205.11-237.88-.7-.72-1.39-1.44-2.11-2.12C508.58,265.94,507.56,264.92,506.52,263.95Z" fill="#e3e2e1" style="mix-blend-mode:multiply"/><g id="_5-2" data-name="5"><g id="icon"><path d="M187.24,225.62s24.45-43.55-11.5-72-73.28-1.13-82.33,36.17,16.93,64.56,59,59S187.24,225.62,187.24,225.62Z" fill="#f4f0df"/><path d="M177.47,226.35s16.45-23.63-2.61-42-42-4.73-49.26,16.18,6.14,38,30.57,37.12S177.47,226.35,177.47,226.35Z" fill="#fc6e51"/><path d="M126.82,209.06c7.27-20.91,30.22-34.52,49.26-16.18a29.2,29.2,0,0,1,8,12.59c0-6.78-2.13-14.3-9.2-21.1-19-18.34-42-4.73-49.26,16.18-2.41,6.95-2.5,13.44-.71,19A33.77,33.77,0,0,1,126.82,209.06Z" fill="#fc6e51"/><path d="M323.68,225.62s-24.46-43.55,11.47-72,73.29-1.13,82.35,36.17-16.94,64.56-59,59S323.68,225.62,323.68,225.62Z" fill="#f4f0df"/><path d="M333.44,226.35s-16.45-23.63,2.59-42,42-4.73,49.26,16.18-6.13,38-30.57,37.12S333.44,226.35,333.44,226.35Z" fill="#fc6e51"/><path d="M384.08,209.06c-7.27-20.91-30.22-34.52-49.26-16.18a29.14,29.14,0,0,0-8,12.59c0-6.78,2.13-14.3,9.18-21.1,19-18.34,42-4.73,49.26,16.18,2.41,6.95,2.51,13.44.72,19A33.6,33.6,0,0,0,384.08,209.06Z" fill="#fc6e51"/><path d="M378.27,305.82c0,59.72-53.86,84.36-120.29,84.36S137.7,365.54,137.7,305.82,191.55,173.91,258,173.91,378.27,246.09,378.27,305.82Z" fill="#f4f0df"/><path d="M292.68,339.46c-13.73,1.47-27.65-10.71-35.32-19l-.54.47v-9.78c16.14-.51,29-9.8,29-21.22,0-11.74-13.6-21.27-30.37-21.27s-30.37,9.53-30.37,21.27c0,11.42,12.87,20.71,29,21.22v9.78l-.55-.47c-9.29,10-24.06,21.39-37,18.67C203.65,336,199.29,325,199,325.78c.41-.87,3.7,12.2,18.87,16.18,14.45,2.67,29-7.53,37.63-16.17,10.1,10.15,25.76,19.88,39.56,15.81,12-4.33,15.5-13.54,16.58-15.48C310.19,328.11,304.63,337.63,292.68,339.46Z" fill="#7f4438"/><path d="M311.59,326.12c.21-.3.34-.46.36-.34C311.88,325.67,311.76,325.81,311.59,326.12Z" fill="#7f4438"/><path d="M204.61,237.44a10.58,10.58,0,0,0-1.2.12,5.9,5.9,0,0,1,1.9,5.68,6.77,6.77,0,0,1-7.38,5.39,5.74,5.74,0,0,1-4.1-2.63,13.17,13.17,0,0,0-.6,4.74,12.14,12.14,0,1,0,11.4-13.32Z" fill="#7f4438"/><path d="M204.1,228.52c-11.42.65-20.12,10.83-19.43,22.72s10.47,21,21.89,20.37,20.11-10.82,19.43-22.72S215.51,227.87,204.1,228.52ZM206,262.7a12.4,12.4,0,0,1-12.84-11.94,13.17,13.17,0,0,1,.6-4.74,5.74,5.74,0,0,0,4.1,2.63,6.77,6.77,0,0,0,7.38-5.39,5.9,5.9,0,0,0-1.9-5.68,10.58,10.58,0,0,1,1.2-.12A12.66,12.66,0,0,1,206,262.7Z" fill="#f4f0df"/><path d="M306.36,237.45a11.68,11.68,0,0,0-2.53.15,5.84,5.84,0,0,1,2.12,5.85,6.76,6.76,0,0,1-7.38,5.39,5.69,5.69,0,0,1-4.34-3.06,13.19,13.19,0,0,0-.76,3.68,12.25,12.25,0,0,0,11.32,13.26,12.54,12.54,0,0,0,12.89-12A12.24,12.24,0,0,0,306.36,237.45Z" fill="#7f4438"/><path d="M306.91,228.54c-11.4-.6-21.24,8.57-22,20.47s7.9,22,19.31,22.62,21.24-8.57,22-20.47S318.32,229.12,306.91,228.54Zm10.77,22.17a12.54,12.54,0,0,1-12.89,12,12.25,12.25,0,0,1-11.32-13.26,13.19,13.19,0,0,1,.76-3.68,5.69,5.69,0,0,0,4.34,3.06,6.76,6.76,0,0,0,7.38-5.39,5.84,5.84,0,0,0-2.12-5.85,11.68,11.68,0,0,1,2.53-.15A12.24,12.24,0,0,1,317.68,250.71Z" fill="#f4f0df"/></g><path id="shadow" d="M417.5,189.76c-9.05-37.3-46.4-64.65-82.35-36.17-14.91,11.82-19.4,26.23-19.58,39.06-20.53-16.78-60.12-18.74-60.12-18.74V390.18s77.82,1.41,99.21-28.51l.66.69a10,10,0,0,1,1.4-1.56c.08-.09.14-.21.24-.3a10.15,10.15,0,0,1,1.92-1.47l-.73-.73a68.67,68.67,0,0,0,11.92-16.5l.9.61a10.82,10.82,0,0,1,1.65-4.75l-.45-.29A73.91,73.91,0,0,0,377.44,318l1.34.28a357.86,357.86,0,0,1,.09-4.93l-.91-.19c.19-2.4.32-4.82.32-7.34,0-18.5-5.18-38.19-14.28-56.57C402.76,251.87,426.15,225.41,417.5,189.76Z" fill="#eeece7" style="mix-blend-mode:multiply"/></g></g></g></svg>