<svg xmlns="http://www.w3.org/2000/svg" viewBox="0 0 512 512"><title>tiger-2</title><g style="isolation:isolate"><g id="Layer_1" data-name="Layer 1"><path d="M512,256c0,141.37-114.62,256-256,256S0,397.38,0,256,114.62,0,256,0,512,114.61,512,256Z" fill="#48cfad"/><path id="_16" data-name="16" d="M508.12,262.25a34.56,34.56,0,0,0-3-3,36.81,36.81,0,0,0-3-3,40.58,40.58,0,0,0-3-3,36,36,0,0,0-3-3,35,35,0,0,0-3-3,37.5,37.5,0,0,0-3-3,39.05,39.05,0,0,0-3-3,35.84,35.84,0,0,0-3-3,36.74,36.74,0,0,0-3-3,39.42,39.42,0,0,0-3-3,38.73,38.73,0,0,0-3-3,40.7,40.7,0,0,0-3-3,40.19,40.19,0,0,0-3-3,38.55,38.55,0,0,0-3-3,38.72,38.72,0,0,0-3-3,35.71,35.71,0,0,0-3-3,36.7,36.7,0,0,0-3-3,36.63,36.63,0,0,0-3-3,37.74,37.74,0,0,0-3-3,37.37,37.37,0,0,0-3-3,36.75,36.75,0,0,0-3-3,37.55,37.55,0,0,0-3-3,36.09,36.09,0,0,0-3-3,37,37,0,0,0-3-3,36.06,36.06,0,0,0-3-3,37.7,37.7,0,0,0-3-3,36.35,36.35,0,0,0-3-3,38.19,38.19,0,0,0-3-3,41,41,0,0,0-3-3,40.5,40.5,0,0,0-3-3,34.39,34.39,0,0,0-3-3,37.63,37.63,0,0,0-3-3,37.16,37.16,0,0,0-3-3,36.3,36.3,0,0,0-3-3.06,38.57,38.57,0,0,0-3-3,39.2,39.2,0,0,0-3-3.06,40,40,0,0,0-3-3,36.47,36.47,0,0,0-31.91-12.14c-.44.05-.87.13-1.31.19-1,.16-2,.34-3,.57l-1.35.35c-1,.28-2,.61-2.95,1l-1,.38a36.53,36.53,0,0,0-3.81,1.79l0,0a38.4,38.4,0,0,0-3.46,2.19l-.8.6c-.86.65-1.7,1.33-2.5,2-.27.23-.54.46-.79.71-.85.8-1.66,1.65-2.44,2.54-.14.15-.27.29-.41.45a38.69,38.69,0,0,0-2.61,3.44h0l0,0a149.52,149.52,0,0,0-14.18-7.29l-.59-.25c-2.25-1-4.55-2-6.87-2.87l-.68-.25c-2.49-1-5-1.87-7.59-2.71l-.08,0-.05,0c-2-.66-4.11-1.28-6.21-1.87l-.1,0,0,0h0q-3.14-.87-6.34-1.63H295c-2.14-.49-4.29-1-6.46-1.37l-.12,0h0c-2.63-.5-5.28-1-8-1.33l-.11,0h-.12c-1.54-.22-3.08-.41-4.64-.58h-.09c-.57-.07-1.14-.13-1.71-.18h0c-1.37-.14-2.75-.27-4.13-.38h0l-.4,0-1.31-.09h0c-1.5-.09-3-.19-4.5-.25h0c-2.19-.09-4.39-.14-6.62-.14q-3.93,0-7.84.19l-.41,0c-2.47.13-4.9.3-7.33.52h-.08a164,164,0,0,0-24.94,4.27l-.13,0q-3.37.86-6.66,1.84l-.16.05a152.8,152.8,0,0,0-34,14.77c-.47-.48-1-.92-1.5-1.37a37.09,37.09,0,0,0-3-3,36.87,36.87,0,1,0-52,52.1,37.33,37.33,0,0,0,3,3c.81.9,1.64,1.77,2.53,2.6A107.19,107.19,0,0,0,112.9,256c0,30.87,13.36,59.06,35.36,80.64,1,1,2,2,3.06,3.07s2,2,3,3,2,2,3,3,2,2,3,3,2,2,3,3,2,2,3,3,2,2,3,3,2,2,3,3,2,2,3,3,2,2,3.06,3,2,2,3,3,2,2,3,3,2,2,3,3,2,2,3,3,2,2,3,3,2,2,3,3,2,2,3,3,2,2,3,3,2,2,3,3,2,2,3,3,2,2.05,3.07,3.06,2,2,3,3,2,2,3,3,2,2,3,3,2,2,3,3,2,2,3,3,2,2,3,3,2,2.06,3.07,3.07,2,2,3,3,2,2,3,3,2,2,3.06,3.06,2,2,3,3,2,2,3,3,2,2,3,3,2,2,3,3,2,2,3,3,2,2,3,3,2,2,3.06,3.07,2,2,3,3,2,2,3,3,2,2,3,3,2,2,3,3,2,2,3,3,2,2,3,3,2,2,3,3,2,2,3,3,2,2,3,3,2,2,3.06,3,2,2,3,3,2,2,3.06,3,2,2,3,3,2,2,3,3,2,2,3,3,2,2.06,3.06,3.06,2,2,3,2.93c.62.67,1.29,1.31,1.95,2,109.14-26.4,190.94-122.7,195.36-238.88-.22-.19-.4-.43-.63-.62A36,36,0,0,0,508.12,262.25Z" fill="#e3e2e1" style="mix-blend-mode:multiply"/><g id="_16-2" data-name="16"><g id="icon"><path d="M180.22,175a37,37,0,1,1-37-37A37,37,0,0,1,180.22,175Z" fill="#ffce54"/><circle cx="143.26" cy="175.01" r="18.48" fill="#f6bb42"/><path d="M331.78,175a37,37,0,1,0,37-37A37,37,0,0,0,331.78,175Z" fill="#ffce54"/><path d="M350.26,175a18.48,18.48,0,1,0,18.48-18.48A18.49,18.49,0,0,0,350.26,175Z" fill="#f6bb42"/><path d="M400.56,256c0,67.85-64.4,122.87-143.83,122.87S112.9,323.86,112.9,256s64.39-122.9,143.82-122.9S400.56,188.13,400.56,256Z" fill="#ffce54"/><path d="M254.57,318.27a1.67,1.67,0,0,1,0-2.35h0a1.66,1.66,0,0,1,2.34,0h0a21.5,21.5,0,0,0,4.48,3h0A28.76,28.76,0,0,0,274.51,322h0a36.38,36.38,0,0,0,12-2.13h0a1.66,1.66,0,0,1,2.11,1h0a1.63,1.63,0,0,1-1,2.09h0a39.41,39.41,0,0,1-13.06,2.34h0c-12.65,0-19.79-6.88-19.94-7Z" fill="#7f4438"/><path d="M238.47,324.67a42.92,42.92,0,0,1-13.56-2.38h0a1.67,1.67,0,0,1-1.06-2.11h0a1.64,1.64,0,0,1,2.09-1h0a39.7,39.7,0,0,0,12.52,2.2h0c8,0,12.66-3.13,14.45-4.62h0a10.27,10.27,0,0,0,.8-.73h0a1.66,1.66,0,0,1,2.34-.16h0a1.65,1.65,0,0,1,.15,2.32h0c-.17.21-5.81,6.52-17.73,6.52h0Z" fill="#7f4438"/><path d="M255.32,317.61a1.65,1.65,0,0,1-1.63-1.69h0l.24-11.56a1.63,1.63,0,0,1,1.68-1.62h0a1.65,1.65,0,0,1,1.63,1.68h0L257,316a1.64,1.64,0,0,1-1.65,1.62h0Z" fill="#7f4438"/><path d="M286,273.75c-2.18-12.11-8.4-38.4-28.09-39.07v0a3.07,3.07,0,0,0-.48,0c-.08,0-.16,0-.22,0v0c-18.24-.45-26.94,24.9-30.13,36.75-5.49,20.58,4.41,32.27,26.24,34.42l0,.11c.74,0,1.42,0,2.17,0s1.43.1,2.2.13V306C279.21,305.53,289.79,294.66,286,273.75Z" fill="#f6bb42"/><path d="M253.31,305.83l0,.11c.74,0,1.42,0,2.17,0s1.43.1,2.2.13V306c14.22-.28,23.54-5.23,27.24-14.49-6.67-4.75-16.51-8-27.68-8.42-12.14-.47-23.08,2.5-30.08,7.45C230.54,299.29,239.54,304.47,253.31,305.83Z" fill="#b98c32"/><path d="M251.79,170.33c12.34,10.57,21.32-5.2,25.93-14.79,2.9-6,4.5-13.88,2.63-20.75a168.2,168.2,0,0,0-23.62-1.68c-5.29,0-10.5.27-15.65.74v2.39C241.32,145.82,243.49,163.25,251.79,170.33Z" fill="#b98c32"/><path d="M301.68,159.27c5.34-2.22,13.91-9.89,12.52-15.83a.2.2,0,0,0,0-.08,159.39,159.39,0,0,0-25.78-7.21C283.62,148.1,282.07,167.38,301.68,159.27Z" fill="#b98c32"/><path d="M285.76,162.5l0,0c-7.09,2.26-6.58,16.1,2.18,13C293.6,173.58,295.75,161.21,285.76,162.5Z" fill="#b98c32"/><path d="M216.7,158c19.4,8,18.09-10.75,13.43-22.74a161.84,161.84,0,0,0-27.56,6.91C203.26,148.07,211.9,156,216.7,158Z" fill="#b98c32"/><path d="M232.58,161.27l0,0c-10-1.29-7.86,11.07-2.22,13.06C239.19,177.37,239.67,163.52,232.58,161.27Z" fill="#b98c32"/><path d="M198.65,221.81c-.41,0-.79.07-1.17.12a5.69,5.69,0,0,1,1.84,5.49,6.54,6.54,0,0,1-7.13,5.19,5.53,5.53,0,0,1-4-2.53,12.43,12.43,0,0,0-.57,4.57,11.71,11.71,0,1,0,11-12.85Z" fill="#7f4438"/><path d="M198.16,213.21c-11,.62-19.4,10.45-18.74,21.92s10.1,20.27,21.12,19.65,19.4-10.44,18.73-21.93S209.15,212.59,198.16,213.21Zm1.88,33a11.94,11.94,0,0,1-12.38-11.51,12.43,12.43,0,0,1,.57-4.57,5.53,5.53,0,0,0,4,2.53,6.54,6.54,0,0,0,7.13-5.19,5.69,5.69,0,0,0-1.84-5.49c.37-.05.76-.1,1.17-.12A12.21,12.21,0,0,1,200,246.17Z" fill="#f4f0df"/><path d="M313.41,221.82A11.73,11.73,0,0,0,311,222,5.59,5.59,0,0,1,313,227.6a6.52,6.52,0,0,1-7.12,5.2,5.45,5.45,0,0,1-4.19-2.95,12.37,12.37,0,0,0-.74,3.55,11.81,11.81,0,0,0,10.92,12.78,12.1,12.1,0,0,0,12.43-11.57A11.82,11.82,0,0,0,313.41,221.82Z" fill="#7f4438"/><path d="M313.94,213.22c-11-.57-20.48,8.26-21.2,19.75s7.62,21.23,18.63,21.81,20.49-8.26,21.21-19.75S325,213.8,313.94,213.22Zm10.39,21.39a12.1,12.1,0,0,1-12.43,11.57A11.81,11.81,0,0,1,301,233.4a12.37,12.37,0,0,1,.74-3.55,5.45,5.45,0,0,0,4.19,2.95,6.52,6.52,0,0,0,7.12-5.2A5.59,5.59,0,0,0,311,222a11.53,11.53,0,0,1,13.37,12.65Z" fill="#f4f0df"/></g><path id="shadow" d="M368.74,138a36.87,36.87,0,0,0-30.79,16.55,152.91,152.91,0,0,0-29.87-13.38l-.17-.06c-2-.67-4.11-1.28-6.19-1.88l-.22-.06q-3.16-.88-6.38-1.63l-.1,0q-3.26-.76-6.55-1.4h-.06c-2.65-.51-5.35-1-8.06-1.34h0c-1.6-.24-3.19-.42-4.8-.59-.57-.07-1.14-.13-1.71-.18-1.4-.15-2.79-.28-4.19-.39-1-.08-2-.13-3-.2s-2.14-.14-3.21-.18c-2.19-.09-4.39-.14-6.62-.14l-.72,0V378.87l.72,0c79.43,0,143.83-55,143.83-122.87a107.53,107.53,0,0,0-12.27-49.68A36.94,36.94,0,0,0,368.74,138Z" fill="#eeece7" style="mix-blend-mode:multiply"/></g></g></g></svg>