<svg xmlns="http://www.w3.org/2000/svg" viewBox="0 0 512 512"><title>lion</title><g style="isolation:isolate"><g id="Layer_1" data-name="Layer 1"><path d="M512,256c0,141.39-114.61,256-256,256S0,397.39,0,256,114.62,0,256,0,512,114.61,512,256Z" fill="#f4f0df"/><path id="_1" data-name="1" d="M505.94,276.77c-1-1-2-2.06-3-3s-2-2.05-3-3-2-2-3-3-2.07-2.1-3.11-3.1-2-2-3-3-2.06-2.09-3.09-3.09-2-2-3-3-2-2.06-3-3-2-2-3-3-2-2-3-3-2-2.08-3.08-3.08-2-2-3-3-2.05-2.08-3.08-3.08-2-2-3-3-2-2.07-3.06-3.06-2-2-3-3-2-2-3-3-2.06-2.09-3.09-3.09-2-2-3-3-2-2-3-3-2-2-3-3-2-2-3-3-2-2-3-3-2-2.05-3-3-2-2-3-3-2-2-3-3-2-2-3-3-2.05-2.08-3.08-3.08-2-2-2.93-2.92-2.08-2.12-3.12-3.12-2-2-3-3-2-2-3-3-2-2.06-3-3-2-2-3-3-2.06-2.09-3.09-3.09-2-2-3-3-2-2-3-3-2-2.06-3.06-3.06-2-2-3-3-2-2.07-3.06-3.06-2-2-3-3-2-2.05-3-3c-15.59-16.06-31.21-25.14-44.47-30.22-.17-.66-1.06-1.38-3.22-2.07.58-.88.23-2-3-3,.59-.87.24-2-3-3,.58-.87.22-2-3-3,.58-.88.24-2-3-3,.64-.95.21-2.16-3.85-3.29a82.18,82.18,0,0,0-19.91-.56s.09-1.95-2.95-2.82c0-.06,0-.13-.07-.19s.13-1.95-3-2.84c0-.06,0-.13-.07-.19s.45-5.78-15.86-2c0,0-10.81,3.12-17.18,7.25l-.38-.24h0c-6.38-4.05-16.76-7.12-16.76-7.12-16.29-3.88-15.88,1.89-15.88,1.89-1,1.15.73,3.11,3.27,5.12a13.31,13.31,0,0,0,2.82,2.86,87,87,0,0,0-32.08-1.52c-8.38,2.28-1.34,5-1.34,5l.34.2c-.64,1.54,2.68,2.82,2.68,2.82l.34.21c-.64,1.54,2.68,2.82,2.68,2.82l.34.2a1.25,1.25,0,0,0-.06.33c-18.37,1.78-55.66,11.71-88.44,59.76,0,0-29.18,44.91-20.45,69.14a3.05,3.05,0,0,0,2.66,1.83c.12.4.22.81.37,1.19a3.06,3.06,0,0,0,2.66,1.84c.12.4.22.8.36,1.19a3.42,3.42,0,0,0,1.14,1.37c-.07.8-.18,1.61-.23,2.41-1.15,13.36.55,36,18,61a6.77,6.77,0,0,0,2.37,2c.22.33.43.66.66,1a6.78,6.78,0,0,0,2.36,2c.23.33.43.66.66,1a6.77,6.77,0,0,0,2.36,2c.23.34.43.66.66,1a6.75,6.75,0,0,0,2.36,2c.23.34.43.66.66,1a6.72,6.72,0,0,0,2.37,2c.22.33.42.66.65,1a7.82,7.82,0,0,0,.56.67,124,124,0,0,0,10.65,18.41c2.37,3.37,9,12.91,15.29,18.74,1,1.07,2,2.09,3,3s2,2.09,3,3c1,1.08,2,2.11,3,3s2,2.07,3,3c1,1.08,2,2.11,3,3s2,2.08,3,3c1,1.08,2,2.08,3,3,1,1.09,2,2.11,3,3s2,2.08,3,3c1,1.08,2,2.1,3,3s2,2.08,3,3c1,1.09,2,2.11,3,3s2,2.09,3,3,2,2.1,3,3,2,2.09,3,3c1,1.08,2,2.09,3,3,1,1.08,2,2.1,3,3s2,2.09,3,3c1,1.08,2,2.09,3,3,1,1.09,2,2.11,3,3s2,2.07,3,3c1,1.08,2,2.1,3,3,1,1.09,2,2.1,3,3s2,2.07,3,3c1,1.09,2,2.11,3.06,3.06s2,2.08,3,3c1,1.08,2,2.1,3,3s2,2.08,3,3,2,2.08,3,3c1,1.09,2,2.11,3,3s2,2.09,3,3c1,1.08,2,2.09,3,3s2,2.09,3,3c1,1.08,2,2.09,3,3,1,1.08,2,2.1,3,3s2,2.08,3,3c1,1.09,2,2.11,3,3s2,2.09,3,3c1,1.08,2,2.09,3,3,1,1.08,2,2.11,3.05,3s2,2.07,3,3,2,2.08,3,3c1,1.09,2,2.12,3.06,3.06s2,2.08,3,3c1,1.08,2,2.1,3,3s2,2.08,3,3,1.85,1.91,2.78,2.78c111.34-20.1,197.66-112.13,209-226.28-.59-.6-1.19-1.21-1.78-1.78C507.94,278.74,506.93,277.75,505.94,276.77Z" fill="#e3e2e1" style="mix-blend-mode:multiply"/><g id="_1-2" data-name="1"><g id="icon"><path d="M398.42,174c-34.27-50.85-73.85-59.36-91-60.48,0,0,0,0,0,0,1.16-1.1,3.78-3.16,9.24-6.26,0,0,7.08-2.68-1.3-5A86.62,86.62,0,0,0,281.28,104c4.52-2.81,9.7-6.6,8.15-8.42,0,0,.45-5.78-15.86-2,0,0-10.81,3.12-17.18,7.25-6.35-4.17-17.14-7.35-17.14-7.35-16.29-3.88-15.88,1.89-15.88,1.89-1.56,1.81,3.59,5.63,8.1,8.46a86.8,86.8,0,0,0-34.08-2c-8.38,2.28-1.34,5-1.34,5a49.21,49.21,0,0,1,9.21,6.31s0,0,0,0c-17.11,1-56.72,9.32-91.29,60,0,0-29.18,44.91-20.45,69.14,0,0,2.08,5.2,8.5-1.87a87.07,87.07,0,0,0-1.55,11.69c-1.15,13.36.55,36,18,61,0,0,4.8,6.94,8.36-3.07h0a132.51,132.51,0,0,0,17.94,37.26c4.55,6.47,24.76,35.73,28.37,17.62a7.29,7.29,0,0,0,1.21,4.09,23.52,23.52,0,0,0,6.08,7.07,99,99,0,0,0,14,10.33s32.53,27.82,37.94,12.47a14.21,14.21,0,0,0,2.16,5.26c7.65,15.83,18.77,16,21.05,15.53,2.24.52,13.39.39,21.12-15.4a13.87,13.87,0,0,0,2.59-7.31c0-.24.1-.47.14-.76,4,14.43,23.89-.64,31.6-6.27s28.43-15.33,27-25.38c3,20.09,24-10.06,28.68-16.62a133.33,133.33,0,0,0,18.17-37.15v0c3.5,10,8.36,3.12,8.36,3.12C410.74,289,412.53,266.38,411.48,253a92.47,92.47,0,0,0-1.47-11.7c6.38,7.12,8.46,1.92,8.46,1.92C427.36,219,398.42,174,398.42,174Z" fill="#fc6e51"/><path d="M194.82,187.45a29,29,0,1,1-29-29.44A29.21,29.21,0,0,1,194.82,187.45Z" fill="#ffce54"/><path d="M180.34,187.45a14.48,14.48,0,1,1-14.48-14.72A14.6,14.6,0,0,1,180.34,187.45Z" fill="#f6bb42"/><path d="M317.19,187.45a29,29,0,1,0,29-29.44A29.21,29.21,0,0,0,317.19,187.45Z" fill="#ffce54"/><path d="M331.66,187.45a14.48,14.48,0,1,0,14.48-14.72A14.6,14.6,0,0,0,331.66,187.45Z" fill="#f6bb42"/><ellipse cx="256" cy="252.96" rx="113.86" ry="99.08" fill="#ffce54"/><path d="M254.18,309.17v-13.6a1.82,1.82,0,0,1,1.83-1.82h0a1.82,1.82,0,0,1,1.82,1.82h0v13.6A1.83,1.83,0,0,1,256,311h0a1.83,1.83,0,0,1-1.83-1.82Z" fill="#7f4438"/><path d="M283.2,262.67c-1.95-12.28-7.49-39-25.42-39.56v0a3.93,3.93,0,0,0-.42,0,1.5,1.5,0,0,0-.22,0v0c-16.61-.39-24.63,25.41-27.57,37.47-5.09,20.93,3.87,32.76,23.74,34.86v.12c.67,0,1.3,0,2,0s1.31.11,2,.12v-.11C276.89,295,286.56,283.92,283.2,262.67Z" fill="#f6bb42"/><path d="M253.3,295.42v.12c.67,0,1.3,0,2,0s1.31.11,2,.12v-.11c13-.36,21.46-5.43,24.86-14.85-6.05-4.8-15-8-25.17-8.43-11.06-.43-21,2.63-27.42,7.69C232.58,288.88,240.76,294.1,253.3,295.42Z" fill="#b98c32"/><path d="M313,297.9a1.82,1.82,0,1,0-3.57.67,10.92,10.92,0,0,1,.17,1.88c0,4-2.33,8.63-5.5,10.58-4.78,3-9.82,3.77-15.76,4.15-2.45.15-4.93.24-7.43.24a83.5,83.5,0,0,1-12-.8c-4.36-.56-10.09-2.14-11.15-5.53a1.79,1.79,0,0,0-1.93-1.13,1.77,1.77,0,0,0-1.91,1.14c-1.05,3.39-6.73,5-11.06,5.52a82.2,82.2,0,0,1-11.93.8c-2.47,0-4.95-.09-7.37-.24-5.89-.38-10.9-1.13-15.63-4.15-3.16-1.95-5.5-6.55-5.47-10.58a10.36,10.36,0,0,1,.18-1.88,1.82,1.82,0,0,0-3.57-.67h0a14.13,14.13,0,0,0-.24,2.55,16.74,16.74,0,0,0,7.14,13.66c5.54,3.53,11.34,4.32,17.36,4.71,2.5.15,5,.25,7.6.25a85.54,85.54,0,0,0,12.47-.85c3.68-.61,9.3-1.51,12.45-5.41,3.16,3.9,8.83,4.79,12.54,5.41a86.65,86.65,0,0,0,12.55.85c2.58,0,5.16-.09,7.67-.25,6.07-.39,11.9-1.18,17.47-4.71a16.72,16.72,0,0,0,7.2-13.66A13.4,13.4,0,0,0,313,297.9Z" fill="#7f4438"/><path d="M336.18,225.94l-53.77,7.44s4.48,28.69,30.72,24.71C313.13,258.09,342.72,256.33,336.18,225.94Z" fill="#f4f0df"/><path d="M320.16,228.21s3.9,19.22-5,21.33c0,0-12.12,5.53-16.32-18.56Z" fill="#7f4438"/><path d="M280.61,233.66a1.83,1.83,0,0,1,1.53-2.08h0l59.7-8.91a1.81,1.81,0,0,1,2.08,1.52h0a1.82,1.82,0,0,1-1.54,2.07h0l-59.7,8.92-.28,0h0a1.82,1.82,0,0,1-1.79-1.54Z" fill="#7f4438"/><path d="M175.83,225.94l53.77,7.44s-4.48,28.69-30.71,24.71C198.88,258.09,169.29,256.33,175.83,225.94Z" fill="#f4f0df"/><path d="M191.84,228.21s-3.89,19.22,5,21.33c0,0,12.11,5.53,16.31-18.56Z" fill="#7f4438"/><path d="M229.33,235.19l-59.71-8.92a1.81,1.81,0,0,1-1.54-2.07h0a1.8,1.8,0,0,1,2.06-1.52h0l59.71,8.91a1.83,1.83,0,0,1,1.54,2.08h0a1.82,1.82,0,0,1-1.8,1.54h0l-.27,0Z" fill="#7f4438"/><circle cx="198.98" cy="247.97" r="7.71" fill="#f4f0df"/><path d="M322.34,248a7.71,7.71,0,1,1-7.71-7.71A7.71,7.71,0,0,1,322.34,248Z" fill="#f4f0df"/><path d="M187.89,273.89,153,264.62a1.82,1.82,0,0,0-.93,3.52L187,277.41a1.5,1.5,0,0,0,.47.07,1.82,1.82,0,0,0,.47-3.58Z" fill="#7f4438"/><path d="M187.24,282.26a1.82,1.82,0,0,0,.1-3.63l-36.78-2a1.82,1.82,0,0,0-.2,3.63l36.79,2Z" fill="#7f4438"/><path d="M187.13,283.79l-34.9,5.72a1.82,1.82,0,0,0,.3,3.62l.3,0,34.89-5.72a1.82,1.82,0,0,0-.59-3.6Z" fill="#7f4438"/><path d="M324.58,277.48a1.5,1.5,0,0,0,.47-.07l34.89-9.27a1.82,1.82,0,0,0-.93-3.52l-34.9,9.27a1.82,1.82,0,0,0,.47,3.58Z" fill="#7f4438"/><path d="M361.44,276.6l-36.77,2a1.82,1.82,0,0,0,.1,3.63h.1l36.78-2a1.82,1.82,0,1,0-.2-3.63Z" fill="#7f4438"/><path d="M359.77,289.51l-34.89-5.72a1.82,1.82,0,0,0-.59,3.6l34.89,5.72.3,0a1.82,1.82,0,0,0,.29-3.62Z" fill="#7f4438"/><path d="M189.51,171.76c-.26.56,8.15,8.46,11.51,10.62,6.88,4.44,10.19.19,10-8.74C215,184.39,223.52,190.1,227.73,190c7.32-.14,7.63-11.29,7.17-16,.82,9.49,8.3,22.6,21.26,21.41l.16-55.1S206.48,134.94,189.51,171.76Z" fill="#fc6e51"/><path d="M321.06,171.25c.26.57-9,8.56-12.34,10.81-6.42,4.4-9.66.51-9.49-8.41-3.92,10.74-12.48,16.46-16.68,16.37-7.32-.14-7.63-11.29-7.19-16-.82,9.49-8.29,22.6-21.25,21.41l-.16-55.1S304.09,134.43,321.06,171.25Z" fill="#fc6e51"/></g><path id="shadow" d="M276.61,404.3a13.87,13.87,0,0,0,2.59-7.31c0-.24.1-.47.14-.76,4,14.43,23.89-.64,31.6-6.27s28.43-15.33,27-25.38c3,20.09,24-10.06,28.68-16.62a133.33,133.33,0,0,0,18.17-37.15v0c3.5,10,8.36,3.12,8.36,3.12C410.74,289,412.53,266.38,411.48,253a92.47,92.47,0,0,0-1.47-11.7c6.38,7.12,8.46,1.92,8.46,1.92,8.89-24.2-20-69.28-20-69.28-34.27-50.85-73.85-59.36-91-60.48,0,0,0,0,0,0,1.16-1.1,3.78-3.16,9.24-6.26,0,0,7.08-2.68-1.3-5A86.62,86.62,0,0,0,281.28,104c4.52-2.81,9.7-6.6,8.15-8.42,0,0,.45-5.78-15.86-2,0,0-10.81,3.12-17.18,7.25l-.38-.24V419.78C259.09,420.14,269.35,419.1,276.61,404.3Z" fill="#eeece7" style="mix-blend-mode:multiply"/></g></g></g></svg>