<svg xmlns="http://www.w3.org/2000/svg" viewBox="0 0 512 512"><title>rabbit</title><g style="isolation:isolate"><g id="Layer_1" data-name="Layer 1"><circle cx="256" cy="256" r="256" fill="#e9573f"/><path id="_7" data-name="7" d="M510.74,259.43c-.22-.26-.47-.49-.71-.73a18.88,18.88,0,0,0-1.7-1.51c-.21-.25-.37-.54-.6-.78s-.48-.49-.73-.73a17.64,17.64,0,0,0-1.71-1.51c-.2-.25-.38-.54-.58-.78s-.5-.48-.74-.73a18.44,18.44,0,0,0-1.69-1.52c-.21-.24-.38-.54-.6-.78s-.49-.49-.73-.73a21.1,21.1,0,0,0-1.69-1.5c-.21-.25-.39-.55-.61-.79s-.47-.48-.73-.73a18.16,18.16,0,0,0-1.7-1.52c-.21-.25-.38-.54-.59-.77s-.5-.49-.73-.73a16.75,16.75,0,0,0-1.71-1.52c-.21-.25-.38-.54-.59-.78s-.49-.48-.73-.73a17,17,0,0,0-1.7-1.51c-.2-.25-.38-.54-.59-.78s-.48-.48-.73-.73a18.12,18.12,0,0,0-1.68-1.5c-.21-.25-.39-.55-.6-.79s-.48-.48-.73-.73a18.05,18.05,0,0,0-1.69-1.5c-.21-.25-.38-.55-.6-.79s-.49-.49-.73-.73a16.49,16.49,0,0,0-1.69-1.5c-.21-.25-.39-.55-.59-.8s-.49-.48-.74-.73a17.5,17.5,0,0,0-1.68-1.5c-.21-.25-.39-.55-.61-.79s-.48-.49-.73-.74a19.79,19.79,0,0,0-1.69-1.51c-.21-.25-.39-.54-.61-.78s-.48-.49-.71-.73a17.62,17.62,0,0,0-1.72-1.51c-.2-.25-.37-.54-.58-.77s-.49-.49-.74-.73a17.94,17.94,0,0,0-1.68-1.5c-.21-.25-.39-.55-.61-.79s-.49-.49-.73-.73a18.66,18.66,0,0,0-1.69-1.5c-.21-.25-.39-.55-.61-.79s-.47-.48-.71-.73a19.41,19.41,0,0,0-1.7-1.51c-.21-.25-.38-.55-.59-.79s-.5-.49-.73-.73a18,18,0,0,0-1.69-1.5c-.21-.25-.38-.54-.59-.79s-.5-.49-.74-.73a16.29,16.29,0,0,0-1.71-1.51c-.19-.24-.38-.54-.59-.77s-.48-.49-.71-.73a19.73,19.73,0,0,0-1.71-1.52c-.2-.25-.39-.54-.6-.78s-.48-.49-.73-.73a18.52,18.52,0,0,0-1.69-1.52c-.21-.25-.38-.54-.59-.78s-.5-.48-.74-.73a17.85,17.85,0,0,0-1.69-1.5c-.2-.26-.37-.55-.59-.8s-.5-.49-.74-.73a16.83,16.83,0,0,0-1.7-1.52c-.21-.25-.39-.54-.59-.77s-.48-.49-.73-.73a19.15,19.15,0,0,0-1.69-1.5c-.21-.26-.39-.54-.6-.79s-.49-.49-.73-.73a18.87,18.87,0,0,0-1.7-1.5c-.21-.25-.37-.54-.59-.78s-.5-.49-.74-.74a15.73,15.73,0,0,0-1.69-1.51c-.21-.25-.38-.54-.59-.78s-.49-.48-.73-.73a17.88,17.88,0,0,0-1.69-1.5c-.2-.25-.39-.55-.61-.79s-.48-.49-.71-.73a18.43,18.43,0,0,0-1.7-1.5c-.2-.25-.38-.55-.59-.79s-.5-.48-.73-.74a18.08,18.08,0,0,0-1.71-1.51c-.21-.25-.38-.54-.59-.78s-.5-.48-.74-.72a19,19,0,0,0-1.69-1.52c-.21-.25-.39-.54-.61-.78s-.48-.49-.71-.73a18,18,0,0,0-1.71-1.51c-.21-.26-.39-.54-.6-.79s-.48-.48-.73-.73a18,18,0,0,0-1.69-1.5c-.21-.25-.38-.55-.59-.79s-.5-.49-.74-.73a17.56,17.56,0,0,0-1.69-1.51c-.21-.26-.39-.54-.6-.78s-.48-.48-.73-.73a20,20,0,0,0-1.7-1.52c-.2-.24-.38-.54-.59-.78s-.48-.49-.73-.73a20.5,20.5,0,0,0-1.68-1.5c-.22-.25-.4-.55-.61-.79s-.49-.48-.73-.73a19.2,19.2,0,0,0-1.7-1.5c-.2-.25-.37-.55-.59-.79s-.5-.49-.73-.72a18.54,18.54,0,0,0-1.7-1.51c-.21-.25-.38-.54-.59-.78s-.48-.48-.73-.73a17.61,17.61,0,0,0-1.7-1.52c-.21-.25-.39-.54-.59-.78s-.48-.49-.72-.73a18.64,18.64,0,0,0-1.71-1.51c-.2-.25-.37-.55-.59-.78s-.49-.48-.73-.73a17.63,17.63,0,0,0-1.7-1.51c-.21-.25-.38-.54-.59-.79s-.49-.48-.74-.72a18.33,18.33,0,0,0-1.69-1.51c-.21-.25-.39-.54-.6-.78s-.49-.49-.72-.73a16.5,16.5,0,0,0-1.71-1.49c-.2-.26-.37-.56-.6-.8s-.48-.48-.71-.73a18.18,18.18,0,0,0-1.71-1.51c-.21-.25-.38-.55-.59-.79s-.5-.49-.74-.73a19.58,19.58,0,0,0-1.68-1.5c-.21-.25-.4-.55-.61-.8s-.49-.48-.73-.73a18.21,18.21,0,0,0-1.71-1.51c-.2-.24-.38-.54-.59-.78s-.48-.49-.72-.73a17.62,17.62,0,0,0-1.7-1.5c-.21-.25-.39-.55-.6-.79s-.49-.48-.72-.73a19.22,19.22,0,0,0-1.69-1.5c-.21-.25-.38-.55-.6-.79s-.49-.49-.73-.73a19.43,19.43,0,0,0-1.7-1.51c-.2-.25-.38-.55-.6-.78s-.48-.49-.73-.74a17.8,17.8,0,0,0-1.69-1.5c-.22-.25-.39-.55-.6-.79s-.49-.49-.73-.73a18.9,18.9,0,0,0-1.69-1.51c-.21-.25-.38-.54-.61-.78s-.48-.49-.73-.73a19.24,19.24,0,0,0-1.69-1.51c-.2-.25-.38-.54-.6-.78s-.48-.49-.73-.73a17.6,17.6,0,0,0-1.78-1.59c-.31-.25-.64-.47-1-.68a17.21,17.21,0,0,0-2.06-1.16c-.33-.15-.64-.32-1-.46a18,18,0,0,0-3.39-1,18.5,18.5,0,0,0-3.45-.27h-.78a17.21,17.21,0,0,0-3.24.44l-.41.12a18.75,18.75,0,0,0-2.84,1l-.66.29a23.43,23.43,0,0,0-3,1.72c-.19.13-.38.28-.56.42a29.83,29.83,0,0,0-2.53,2.05c-.16.15-.33.28-.49.44-.92.87-1.81,1.82-2.7,2.83-.2.23-.39.47-.59.71-.83,1-1.62,2-2.4,3.09-.08.12-.18.23-.27.35-.84,1.19-1.66,2.46-2.46,3.78l-.57.95c-.8,1.34-1.57,2.71-2.34,4.16-.05.11-.11.21-.15.31-.71,1.37-1.4,2.8-2.09,4.26-.18.39-.36.77-.53,1.16-.7,1.52-1.39,3.08-2,4.67l-.39,1c-.57,1.39-1.13,2.81-1.66,4.25-.15.42-.32.84-.47,1.27-.61,1.65-1.19,3.33-1.77,5-.17.48-.32,1-.48,1.45q-.7,2.12-1.37,4.29c-.13.44-.27.87-.41,1.31-.51,1.71-1,3.43-1.51,5.17-.18.6-.34,1.2-.51,1.8-.39,1.44-.79,2.88-1.16,4.33-.16.57-.3,1.15-.46,1.73q-.59,2.31-1.15,4.63c-.18.71-.35,1.41-.51,2.11-.34,1.46-.68,2.91-1,4.36-.2.84-.38,1.66-.56,2.49-.25,1.13-.5,2.26-.74,3.38-.18.81-.33,1.6-.5,2.41-.3,1.47-.6,2.93-.88,4.37-.18.86-.34,1.71-.5,2.57-.08.42-.17.85-.25,1.28h0a116.85,116.85,0,0,0-41.76-7.76h-1.11v0c-2.41,0-4.82.14-7.2.31a37.37,37.37,0,0,0-3-3,37.81,37.81,0,0,0-3-3,36.77,36.77,0,0,0-3-3,38.62,38.62,0,0,0-3-3,38.53,38.53,0,0,0-3-3,37.77,37.77,0,0,0-3-3,38.39,38.39,0,0,0-3-3,37.31,37.31,0,0,0-3-3,39.89,39.89,0,0,0-3-3,39.72,39.72,0,0,0-3.06-3,38.05,38.05,0,0,0-3-3,37.32,37.32,0,0,0-3-3,38.55,38.55,0,0,0-3-3,39.18,39.18,0,0,0-3-3,37.06,37.06,0,0,0-3-3,37.55,37.55,0,0,0-3-3,37.36,37.36,0,0,0-3-3,37.06,37.06,0,0,0-3-3,34.6,34.6,0,0,0-3-3,35.19,35.19,0,0,0-3.06-3.06,36.61,36.61,0,0,0-3-3,38.78,38.78,0,0,0-3-3.06,39.15,39.15,0,0,0-3-3,39.9,39.9,0,0,0-3-3,37,37,0,0,0-3-3c-5.89-6.58-12.61-10-20.23-8.59-36.93,7-8,112.62-.33,138.65-17.25,22.67-27.6,49.89-27.58,76.75,0,25.25,8.94,44.67,24.06,59,1,1,2,2,3,3s2,2,3,3,2,2,3,3,2,2,3,3,2,2,3,3,2,2,3,3,2,2,3,3,2,2.07,3.07,3.07,2,2,3,3,2,2.05,3,3,2,2,3,3,2,2,3,3,2,2.06,3,3,2,2,3,3,2,2,3,3,2,2,3,3,2,2,3,3,2,2.06,3,3.06,2,2,3,3,2,2.05,3,3,2,2,3,3,2,2,3,3,2,2.06,3.06,3,2,2,3,3,2,2.05,3,3,2,2,3,3,2,2,3,3,2,2.05,3,3,2,2,3,3,2,2,3,3,2,2,3,3,2,2.05,3,3,2,2,3,3,2,2,3,3,2,2.05,3,3,2,2,3,3,2,2,3,3,2,2.07,3.06,3.06,1.94,2,3,3,2,2.08,3.07,3.08,2,2,3,3,2,2,3,3,2,2,3,3,2,2.05,3,3l.33.32c127.16-13.33,226.52-119.75,228.88-249.88-.17-.15-.35-.32-.53-.47S511,259.67,510.74,259.43Z" fill="#e3e2e1" style="mix-blend-mode:multiply"/><g id="_7-2" data-name="7"><g id="icon"><path d="M155,247.3s-43.55-136.47-1.42-144.42,56.71,132.53,56.71,132.53Z" fill="#f4f0df"/><path d="M165.53,231.5s-30.14-98.91-4.47-103.75S195.61,215,195.61,215Z" fill="#fc6e51" style="mix-blend-mode:multiply"/><path d="M348.57,247.13s43.33-136.56,1.2-144.42-56.5,132.63-56.5,132.63Z" fill="#f4f0df"/><path d="M338,231.34s30-98.95,4.3-103.75-34.41,87.36-34.41,87.36Z" fill="#fc6e51" style="mix-blend-mode:multiply"/><path d="M386.34,318.07c.06,64.72-58.27,91.47-130.25,91.53S125.72,383,125.67,318.28s60-131.56,132-131.63S386.28,253.35,386.34,318.07Z" fill="#f4f0df"/><path d="M290.61,308.48c0,12.73-14.71,23.06-32.88,23.07s-32.93-10.3-32.94-23,14.71-23.06,32.87-23.07S290.6,295.77,290.61,308.48Z" fill="#7f4438"/><path d="M282.67,352.45c-9,.79-18.08-7-23.44-12.69l0-12.61a2.54,2.54,0,0,0-2.54-2.53h0a2.53,2.53,0,0,0-2.52,2.54v12.6c-6.41,6.73-16,14.14-24.57,12.52-8.84-1.89-12.17-9.54-12.37-9,.31-.62,2.33,8.61,13.13,11.67,10,2,20.14-4.66,26.35-10.66,7.2,7,18.13,13.35,27.77,10.36A19.78,19.78,0,0,0,296,343.43C295,344.71,290.92,351.39,282.67,352.45Z" fill="#7f4438"/><path d="M296.19,343.24c0-.08-.13,0-.21.19C296.1,343.24,296.18,343.16,296.19,343.24Z" fill="#7f4438"/><path d="M199.11,247.77a12.19,12.19,0,0,0-1.26.14,6.18,6.18,0,0,1,2,5.95,7.11,7.11,0,0,1-7.74,5.66,6,6,0,0,1-4.3-2.75,14.21,14.21,0,0,0-.65,5,13,13,0,0,0,13.47,12.51c7-.4,12.34-6.65,11.93-14S206.12,247.35,199.11,247.77Z" fill="#7f4438"/><path d="M198.58,238.42c-11.94.68-21.06,11.35-20.34,23.81s11,22,22.93,21.35,21.07-11.34,20.35-23.81S210.53,237.74,198.58,238.42Zm2.06,35.82a13,13,0,0,1-13.47-12.51,14.21,14.21,0,0,1,.65-5,6,6,0,0,0,4.3,2.75,7.11,7.11,0,0,0,7.74-5.66,6.18,6.18,0,0,0-2-5.95,12.19,12.19,0,0,1,1.26-.14c7-.41,13,5.2,13.45,12.5S207.64,273.84,200.63,274.24Z" fill="#f4f0df"/><path d="M313,247.78a12.24,12.24,0,0,0-2.66.15,6.1,6.1,0,0,1,2.23,6.13,7.08,7.08,0,0,1-7.72,5.65,6,6,0,0,1-4.56-3.21,13.77,13.77,0,0,0-.79,3.85,12.82,12.82,0,0,0,11.86,13.9c7,.36,13-5.27,13.5-12.58A12.83,12.83,0,0,0,313,247.78Z" fill="#7f4438"/><path d="M313.54,238.44c-11.94-.62-22.26,9-23,21.45s8.28,23.07,20.24,23.69,22.25-9,23.05-21.44S325.5,239.06,313.54,238.44Zm11.28,23.23c-.45,7.3-6.5,12.94-13.5,12.58a12.82,12.82,0,0,1-11.86-13.9,13.77,13.77,0,0,1,.79-3.85,6,6,0,0,0,4.56,3.21,7.08,7.08,0,0,0,7.72-5.65,6.1,6.1,0,0,0-2.23-6.13,12.24,12.24,0,0,1,2.66-.15A12.83,12.83,0,0,1,324.82,261.68Z" fill="#f4f0df"/></g><path id="shadow" d="M352.87,232.43c9.8-35.5,30.46-123.46-3.1-129.72-27-5-42.62,50.91-50.33,91.71a123,123,0,0,0-42.91-7.77l-.45,222.94c72-.05,130.31-26.81,130.25-91.53C386.32,287.57,373.71,256.63,352.87,232.43Z" fill="#eeece7" style="mix-blend-mode:multiply"/></g></g></g></svg>